<?xml version="1.0" encoding="UTF-8" standalone="no"?><svg xmlns="http://www.w3.org/2000/svg" xmlns:xlink="http://www.w3.org/1999/xlink" contentScriptType="application/ecmascript" contentStyleType="text/css" height="849px" preserveAspectRatio="none" style="width:324px;height:849px;" version="1.1" viewBox="0 0 324 849" width="324px" zoomAndPan="magnify"><defs><filter height="300%" id="f1g4pl0ev91nbp" width="300%" x="-1" y="-1"><feGaussianBlur result="blurOut" stdDeviation="2.0"/><feColorMatrix in="blurOut" result="blurOut2" type="matrix" values="0 0 0 0 0 0 0 0 0 0 0 0 0 0 0 0 0 0 .4 0"/><feOffset dx="4.0" dy="4.0" in="blurOut2" result="blurOut3"/><feBlend in="SourceGraphic" in2="blurOut3" mode="normal"/></filter></defs><g><ellipse cx="235.5" cy="18" fill="#000000" filter="url(#f1g4pl0ev91nbp)" rx="10" ry="10" style="stroke: none; stroke-width: 1.0;"/><rect fill="#FEFECE" filter="url(#f1g4pl0ev91nbp)" height="35.0938" rx="12.5" ry="12.5" style="stroke: #A80036; stroke-width: 1.5;" width="86" x="192.5" y="83"/><text fill="#000000" font-family="sans-serif" font-size="12" lengthAdjust="spacingAndGlyphs" textLength="66" x="202.5" y="105.457">null,null,null</text><rect fill="#FEFECE" filter="url(#f1g4pl0ev91nbp)" height="35.0938" rx="12.5" ry="12.5" style="stroke: #A80036; stroke-width: 1.5;" width="73" x="199" y="173"/><text fill="#000000" font-family="sans-serif" font-size="12" lengthAdjust="spacingAndGlyphs" textLength="53" x="209" y="195.457">0,null,null</text><rect fill="#FEFECE" filter="url(#f1g4pl0ev91nbp)" height="35.0938" rx="12.5" ry="12.5" style="stroke: #A80036; stroke-width: 1.5;" width="60" x="205.5" y="263"/><text fill="#000000" font-family="sans-serif" font-size="12" lengthAdjust="spacingAndGlyphs" textLength="40" x="215.5" y="285.457">0,0,null</text><rect fill="#FF0000" filter="url(#f1g4pl0ev91nbp)" height="35.0938" rx="12.5" ry="12.5" style="stroke: #A80036; stroke-width: 1.5;" width="47" x="212" y="353"/><text fill="#000000" font-family="sans-serif" font-size="12" lengthAdjust="spacingAndGlyphs" textLength="27" x="222" y="375.457">0,0,0</text><rect fill="#FEFECE" filter="url(#f1g4pl0ev91nbp)" height="35.0938" rx="12.5" ry="12.5" style="stroke: #A80036; stroke-width: 1.5;" width="47" x="109" y="443"/><text fill="#000000" font-family="sans-serif" font-size="12" lengthAdjust="spacingAndGlyphs" textLength="27" x="119" y="465.457">0,0,2</text><rect fill="#FEFECE" filter="url(#f1g4pl0ev91nbp)" height="35.0938" rx="12.5" ry="12.5" style="stroke: #A80036; stroke-width: 1.5;" width="47" x="12" y="533"/><text fill="#000000" font-family="sans-serif" font-size="12" lengthAdjust="spacingAndGlyphs" textLength="27" x="22" y="555.457">0,1,2</text><rect fill="#FEFECE" filter="url(#f1g4pl0ev91nbp)" height="35.0938" rx="12.5" ry="12.5" style="stroke: #A80036; stroke-width: 1.5;" width="47" x="79" y="533"/><text fill="#000000" font-family="sans-serif" font-size="12" lengthAdjust="spacingAndGlyphs" textLength="27" x="89" y="555.457">0,0,5</text><rect fill="#FEFECE" filter="url(#f1g4pl0ev91nbp)" height="35.0938" rx="12.5" ry="12.5" style="stroke: #A80036; stroke-width: 1.5;" width="47" x="6" y="623"/><text fill="#000000" font-family="sans-serif" font-size="12" lengthAdjust="spacingAndGlyphs" textLength="27" x="16" y="645.457">0,1,5</text><rect fill="#FEFECE" filter="url(#f1g4pl0ev91nbp)" height="35.0938" rx="12.5" ry="12.5" style="stroke: #A80036; stroke-width: 1.5;" width="47" x="78" y="623"/><text fill="#000000" font-family="sans-serif" font-size="12" lengthAdjust="spacingAndGlyphs" textLength="27" x="88" y="645.457">0,0,4</text><rect fill="#FEFECE" filter="url(#f1g4pl0ev91nbp)" height="35.0938" rx="12.5" ry="12.5" style="stroke: #A80036; stroke-width: 1.5;" width="47" x="56" y="713"/><text fill="#000000" font-family="sans-serif" font-size="12" lengthAdjust="spacingAndGlyphs" textLength="27" x="66" y="735.457">0,1,4</text><rect fill="#FEFECE" filter="url(#f1g4pl0ev91nbp)" height="35.0938" rx="12.5" ry="12.5" style="stroke: #A80036; stroke-width: 1.5;" width="47" x="134" y="713"/><text fill="#000000" font-family="sans-serif" font-size="12" lengthAdjust="spacingAndGlyphs" textLength="27" x="144" y="735.457">0,0,3</text><rect fill="#FEFECE" filter="url(#f1g4pl0ev91nbp)" height="35.0938" rx="12.5" ry="12.5" style="stroke: #A80036; stroke-width: 1.5;" width="47" x="149" y="803"/><text fill="#000000" font-family="sans-serif" font-size="12" lengthAdjust="spacingAndGlyphs" textLength="27" x="159" y="825.457">0,1,3</text><rect fill="#FEFECE" filter="url(#f1g4pl0ev91nbp)" height="35.0938" rx="12.5" ry="12.5" style="stroke: #A80036; stroke-width: 1.5;" width="47" x="191" y="533"/><text fill="#000000" font-family="sans-serif" font-size="12" lengthAdjust="spacingAndGlyphs" textLength="27" x="201" y="555.457">0,0,1</text><rect fill="#FEFECE" filter="url(#f1g4pl0ev91nbp)" height="35.0938" rx="12.5" ry="12.5" style="stroke: #A80036; stroke-width: 1.5;" width="47" x="191" y="623"/><text fill="#000000" font-family="sans-serif" font-size="12" lengthAdjust="spacingAndGlyphs" textLength="27" x="201" y="645.457">0,1,1</text><rect fill="#FEFECE" filter="url(#f1g4pl0ev91nbp)" height="35.0938" rx="12.5" ry="12.5" style="stroke: #A80036; stroke-width: 1.5;" width="47" x="254" y="443"/><text fill="#000000" font-family="sans-serif" font-size="12" lengthAdjust="spacingAndGlyphs" textLength="27" x="264" y="465.457">1,0,0</text><rect fill="#FEFECE" filter="url(#f1g4pl0ev91nbp)" height="35.0938" rx="12.5" ry="12.5" style="stroke: #A80036; stroke-width: 1.5;" width="47" x="266" y="533"/><text fill="#000000" font-family="sans-serif" font-size="12" lengthAdjust="spacingAndGlyphs" textLength="27" x="276" y="555.457">2,0,0</text><rect fill="#FEFECE" filter="url(#f1g4pl0ev91nbp)" height="35.0938" rx="12.5" ry="12.5" style="stroke: #A80036; stroke-width: 1.5;" width="47" x="263" y="623"/><text fill="#000000" font-family="sans-serif" font-size="12" lengthAdjust="spacingAndGlyphs" textLength="27" x="273" y="645.457">3,0,0</text><rect fill="#FEFECE" filter="url(#f1g4pl0ev91nbp)" height="35.0938" rx="12.5" ry="12.5" style="stroke: #A80036; stroke-width: 1.5;" width="47" x="232" y="713"/><text fill="#000000" font-family="sans-serif" font-size="12" lengthAdjust="spacingAndGlyphs" textLength="27" x="242" y="735.457">4,0,0</text><rect fill="#FEFECE" filter="url(#f1g4pl0ev91nbp)" height="35.0938" rx="12.5" ry="12.5" style="stroke: #A80036; stroke-width: 1.5;" width="47" x="224" y="803"/><text fill="#000000" font-family="sans-serif" font-size="12" lengthAdjust="spacingAndGlyphs" textLength="27" x="234" y="825.457">5,0,0</text><!--link start to null,null,null--><path d="M235.5,28.234 C235.5,40.182 235.5,61.38 235.5,77.561 " fill="none" id="start-null,null,null" style="stroke: #A80036; stroke-width: 1.0;"/><polygon fill="#A80036" points="235.5,82.836,239.5,73.836,235.5,77.836,231.5,73.836,235.5,82.836" style="stroke: #A80036; stroke-width: 1.0;"/><text fill="#000000" font-family="sans-serif" font-size="11" lengthAdjust="spacingAndGlyphs" textLength="6" x="236.5" y="60.4189">1</text><!--link null,null,null to 0,null,null--><path d="M235.5,118.052 C235.5,132.098 235.5,152.357 235.5,167.717 " fill="none" id="null,null,null-0,null,null" style="stroke: #A80036; stroke-width: 1.0;"/><polygon fill="#A80036" points="235.5,172.723,239.5,163.723,235.5,167.723,231.5,163.723,235.5,172.723" style="stroke: #A80036; stroke-width: 1.0;"/><text fill="#000000" font-family="sans-serif" font-size="11" lengthAdjust="spacingAndGlyphs" textLength="6" x="236.5" y="150.4189">1</text><!--link 0,null,null to 0,0,null--><path d="M235.5,208.052 C235.5,222.098 235.5,242.357 235.5,257.717 " fill="none" id="0,null,null-0,0,null" style="stroke: #A80036; stroke-width: 1.0;"/><polygon fill="#A80036" points="235.5,262.723,239.5,253.723,235.5,257.723,231.5,253.723,235.5,262.723" style="stroke: #A80036; stroke-width: 1.0;"/><text fill="#000000" font-family="sans-serif" font-size="11" lengthAdjust="spacingAndGlyphs" textLength="6" x="236.5" y="240.4189">1</text><!--link 0,0,null to 0,0,0--><path d="M235.5,298.052 C235.5,312.098 235.5,332.357 235.5,347.717 " fill="none" id="0,0,null-0,0,0" style="stroke: #A80036; stroke-width: 1.0;"/><polygon fill="#A80036" points="235.5,352.723,239.5,343.723,235.5,347.723,231.5,343.723,235.5,352.723" style="stroke: #A80036; stroke-width: 1.0;"/><text fill="#000000" font-family="sans-serif" font-size="11" lengthAdjust="spacingAndGlyphs" textLength="6" x="236.5" y="330.4189">1</text><!--link 0,0,0 to 0,0,2--><path d="M216.126,388.052 C199.115,402.586 174.316,423.773 156.141,439.302 " fill="none" id="0,0,0-0,0,2" style="stroke: #A80036; stroke-width: 1.0;"/><polygon fill="#A80036" points="152.137,442.723,161.5788,439.9207,155.9394,439.4762,156.3839,433.8369,152.137,442.723" style="stroke: #A80036; stroke-width: 1.0;"/><text fill="#000000" font-family="sans-serif" font-size="11" lengthAdjust="spacingAndGlyphs" textLength="6" x="191.5" y="420.4189">1</text><!--link 0,0,2 to 0,1,2--><path d="M108.752,466.584 C90.6695,471.634 66.4221,481.134 51.5,498 C44.2094,506.24 40.2407,517.767 38.0804,527.827 " fill="none" id="0,0,2-0,1,2" style="stroke: #A80036; stroke-width: 1.0;"/><polygon fill="#A80036" points="37.1075,532.929,42.7234,524.8382,38.0446,528.0176,34.8652,523.3388,37.1075,532.929" style="stroke: #A80036; stroke-width: 1.0;"/><text fill="#000000" font-family="sans-serif" font-size="11" lengthAdjust="spacingAndGlyphs" textLength="6" x="52.5" y="510.4189">2</text><!--link 0,1,2 to 0,0,2--><path d="M53.9929,532.723 C70.0887,518.121 93.4479,496.929 110.5,481.459 " fill="none" id="0,1,2-0,0,2" style="stroke: #A80036; stroke-width: 1.0;"/><polygon fill="#A80036" points="114.255,478.052,104.902,481.1377,110.5522,481.4119,110.2779,487.0622,114.255,478.052" style="stroke: #A80036; stroke-width: 1.0;"/><text fill="#000000" font-family="sans-serif" font-size="11" lengthAdjust="spacingAndGlyphs" textLength="6" x="91.5" y="510.4189">2</text><!--link 0,0,2 to 0,0,5--><path d="M126.857,478.052 C122.069,492.098 115.163,512.357 109.926,527.717 " fill="none" id="0,0,2-0,0,5" style="stroke: #A80036; stroke-width: 1.0;"/><polygon fill="#A80036" points="108.219,532.723,114.9089,525.4949,109.8323,527.9904,107.3368,522.9137,108.219,532.723" style="stroke: #A80036; stroke-width: 1.0;"/><text fill="#000000" font-family="sans-serif" font-size="11" lengthAdjust="spacingAndGlyphs" textLength="6" x="120.5" y="510.4189">1</text><!--link 0,0,5 to 0,1,5--><path d="M78.81,562.984 C56.8689,573.627 27.596,587.847 27.5,588 C22.0049,596.786 21.891,608.162 23.4141,617.987 " fill="none" id="0,0,5-0,1,5" style="stroke: #A80036; stroke-width: 1.0;"/><polygon fill="#A80036" points="24.34,622.962,26.6268,613.3823,23.4257,618.0463,18.7617,614.8452,24.34,622.962" style="stroke: #A80036; stroke-width: 1.0;"/><text fill="#000000" font-family="sans-serif" font-size="11" lengthAdjust="spacingAndGlyphs" textLength="12" x="28.5" y="600.4189">20</text><!--link 0,1,5 to 0,0,5--><path d="M43.4174,622.723 C55.3271,608.366 72.5209,587.639 85.2924,572.243 " fill="none" id="0,1,5-0,0,5" style="stroke: #A80036; stroke-width: 1.0;"/><polygon fill="#A80036" points="88.7693,568.052,79.9442,572.4243,85.5767,571.9,86.101,577.5325,88.7693,568.052" style="stroke: #A80036; stroke-width: 1.0;"/><text fill="#000000" font-family="sans-serif" font-size="11" lengthAdjust="spacingAndGlyphs" textLength="12" x="71.5" y="600.4189">20</text><!--link 0,0,5 to 0,0,4--><path d="M102.3119,568.052 C102.1523,582.098 101.9221,602.357 101.7475,617.717 " fill="none" id="0,0,5-0,0,4" style="stroke: #A80036; stroke-width: 1.0;"/><polygon fill="#A80036" points="101.6906,622.723,105.7932,613.7693,101.7477,617.7233,97.7937,613.6779,101.6906,622.723" style="stroke: #A80036; stroke-width: 1.0;"/><text fill="#000000" font-family="sans-serif" font-size="11" lengthAdjust="spacingAndGlyphs" textLength="6" x="103.5" y="600.4189">1</text><!--link 0,0,4 to 0,1,4--><path d="M82.2898,658.312 C77.1313,663.989 72.2305,670.744 69.5,678 C65.8944,687.582 67.3831,698.678 70.1876,708.112 " fill="none" id="0,0,4-0,1,4" style="stroke: #A80036; stroke-width: 1.0;"/><polygon fill="#A80036" points="71.7541,712.877,72.7434,703.078,70.1926,708.1271,65.1435,705.5763,71.7541,712.877" style="stroke: #A80036; stroke-width: 1.0;"/><text fill="#000000" font-family="sans-serif" font-size="11" lengthAdjust="spacingAndGlyphs" textLength="6" x="70.5" y="690.4189">1</text><!--link 0,1,4 to 0,0,4--><path d="M83.6943,712.723 C87.2222,698.611 92.2885,678.346 96.1156,663.038 " fill="none" id="0,1,4-0,0,4" style="stroke: #A80036; stroke-width: 1.0;"/><polygon fill="#A80036" points="97.362,658.052,91.2983,665.8129,96.1492,662.9027,99.0594,667.7535,97.362,658.052" style="stroke: #A80036; stroke-width: 1.0;"/><text fill="#000000" font-family="sans-serif" font-size="11" lengthAdjust="spacingAndGlyphs" textLength="6" x="93.5" y="690.4189">1</text><!--link 0,0,4 to 0,0,3--><path d="M112.033,658.052 C121.049,672.22 134.088,692.709 143.893,708.117 " fill="none" id="0,0,4-0,0,3" style="stroke: #A80036; stroke-width: 1.0;"/><polygon fill="#A80036" points="146.824,712.723,145.3672,702.9825,144.1398,708.5046,138.6177,707.2772,146.824,712.723" style="stroke: #A80036; stroke-width: 1.0;"/><text fill="#000000" font-family="sans-serif" font-size="11" lengthAdjust="spacingAndGlyphs" textLength="6" x="134.5" y="690.4189">1</text><!--link 0,0,3 to 0,1,3--><path d="M156.369,748.3544 C156.049,758.4878 156.272,771.59 158.5,783 C159.476,787.9959 161.081,793.1973 162.864,798.055 " fill="none" id="0,0,3-0,1,3" style="stroke: #A80036; stroke-width: 1.0;"/><polygon fill="#A80036" points="164.689,802.7779,165.1763,792.9411,162.8869,798.114,157.714,795.8245,164.689,802.7779" style="stroke: #A80036; stroke-width: 1.0;"/><text fill="#000000" font-family="sans-serif" font-size="11" lengthAdjust="spacingAndGlyphs" textLength="6" x="159.5" y="780.4189">1</text><!--link 0,1,3 to 0,0,3--><path d="M170.57,802.7475 C169.32,792.6501 167.547,779.5501 165.5,768 C164.652,763.2152 163.615,758.1056 162.573,753.2707 " fill="none" id="0,1,3-0,0,3" style="stroke: #A80036; stroke-width: 1.0;"/><polygon fill="#A80036" points="161.448,748.1607,159.4761,757.8101,162.5228,753.0438,167.2891,756.0905,161.448,748.1607" style="stroke: #A80036; stroke-width: 1.0;"/><text fill="#000000" font-family="sans-serif" font-size="11" lengthAdjust="spacingAndGlyphs" textLength="6" x="169.5" y="780.4189">1</text><!--link 0,0,3 to 0,0,2--><path d="M155.937,712.742 C151.597,666.218 139.401,535.474 134.538,483.35 " fill="none" id="0,0,3-0,0,2" style="stroke: #A80036; stroke-width: 1.0;"/><polygon fill="#A80036" points="134.064,478.265,130.9196,487.5984,134.5297,483.2433,138.8848,486.8533,134.064,478.265" style="stroke: #A80036; stroke-width: 1.0;"/><text fill="#000000" font-family="sans-serif" font-size="11" lengthAdjust="spacingAndGlyphs" textLength="6" x="147.5" y="600.4189">1</text><!--link 0,0,2 to 0,0,1--><path d="M150.084,478.323 C156.317,484.423 163.315,491.43 169.5,498 C178.9,507.986 188.978,519.444 197.208,529.013 " fill="none" id="0,0,2-0,0,1" style="stroke: #A80036; stroke-width: 1.0;"/><polygon fill="#A80036" points="200.615,532.989,197.7975,523.5517,197.3621,529.1918,191.722,528.7564,200.615,532.989" style="stroke: #A80036; stroke-width: 1.0;"/><text fill="#000000" font-family="sans-serif" font-size="11" lengthAdjust="spacingAndGlyphs" textLength="6" x="183.5" y="510.4189">1</text><!--link 0,0,1 to 0,1,1--><path d="M204.046,568.425 C199.144,578.358 194.894,591.233 197.5,603 C198.634,608.119 200.562,613.371 202.722,618.239 " fill="none" id="0,0,1-0,1,1" style="stroke: #A80036; stroke-width: 1.0;"/><polygon fill="#A80036" points="204.939,622.96,204.7358,613.1132,202.8145,618.4338,197.4939,616.5125,204.939,622.96" style="stroke: #A80036; stroke-width: 1.0;"/><text fill="#000000" font-family="sans-serif" font-size="11" lengthAdjust="spacingAndGlyphs" textLength="6" x="198.5" y="600.4189">1</text><!--link 0,1,1 to 0,0,1--><path d="M214.5,622.723 C214.5,608.734 214.5,588.698 214.5,573.438 " fill="none" id="0,1,1-0,0,1" style="stroke: #A80036; stroke-width: 1.0;"/><polygon fill="#A80036" points="214.5,568.052,210.5,577.052,214.5,573.052,218.5,577.052,214.5,568.052" style="stroke: #A80036; stroke-width: 1.0;"/><text fill="#000000" font-family="sans-serif" font-size="11" lengthAdjust="spacingAndGlyphs" textLength="6" x="215.5" y="600.4189">1</text><!--link 0,0,1 to 0,0,0--><path d="M216.455,532.928 C220.263,500.651 228.673,429.364 232.928,393.302 " fill="none" id="0,0,1-0,0,0" style="stroke: #A80036; stroke-width: 1.0;"/><polygon fill="#A80036" points="233.524,388.246,228.497,396.7153,232.9381,393.2116,236.4419,397.6527,233.524,388.246" style="stroke: #A80036; stroke-width: 1.0;"/><text fill="#000000" font-family="sans-serif" font-size="11" lengthAdjust="spacingAndGlyphs" textLength="6" x="228.5" y="465.4189">1</text><!--link 0,0,0 to 1,0,0--><path d="M241.104,388.044 C244.777,398.298 249.92,411.635 255.5,423 C257.997,428.085 260.968,433.393 263.906,438.336 " fill="none" id="0,0,0-1,0,0" style="stroke: #A80036; stroke-width: 1.0;"/><polygon fill="#A80036" points="266.581,442.756,265.3432,432.9852,263.9922,438.4784,258.499,437.1274,266.581,442.756" style="stroke: #A80036; stroke-width: 1.0;"/><text fill="#000000" font-family="sans-serif" font-size="11" lengthAdjust="spacingAndGlyphs" textLength="6" x="256.5" y="420.4189">5</text><!--link 1,0,0 to 0,0,0--><path d="M274.194,442.709 C271.776,432.362 267.959,419.014 262.5,408 C259.82,402.593 256.328,397.155 252.75,392.189 " fill="none" id="1,0,0-0,0,0" style="stroke: #A80036; stroke-width: 1.0;"/><polygon fill="#A80036" points="249.739,388.139,251.8978,397.7483,252.7218,392.1518,258.3183,392.9758,249.739,388.139" style="stroke: #A80036; stroke-width: 1.0;"/><text fill="#000000" font-family="sans-serif" font-size="11" lengthAdjust="spacingAndGlyphs" textLength="6" x="270.5" y="420.4189">5</text><!--link 1,0,0 to 2,0,0--><path d="M270.892,478.362 C267.823,488.498 265.455,501.6 268.5,513 C269.916,518.3 272.306,523.628 274.977,528.513 " fill="none" id="1,0,0-2,0,0" style="stroke: #A80036; stroke-width: 1.0;"/><polygon fill="#A80036" points="277.489,532.861,276.4506,523.067,274.9879,528.5315,269.5234,527.0688,277.489,532.861" style="stroke: #A80036; stroke-width: 1.0;"/><text fill="#000000" font-family="sans-serif" font-size="11" lengthAdjust="spacingAndGlyphs" textLength="6" x="269.5" y="510.4189">5</text><!--link 2,0,0 to 1,0,0--><path d="M287.212,532.723 C285.288,518.611 282.524,498.346 280.437,483.038 " fill="none" id="2,0,0-1,0,0" style="stroke: #A80036; stroke-width: 1.0;"/><polygon fill="#A80036" points="279.757,478.052,277.0099,487.51,280.4327,483.0061,284.9366,486.4289,279.757,478.052" style="stroke: #A80036; stroke-width: 1.0;"/><text fill="#000000" font-family="sans-serif" font-size="11" lengthAdjust="spacingAndGlyphs" textLength="6" x="285.5" y="510.4189">5</text><!--link 2,0,0 to 3,0,0--><path d="M276.115,568.356 C272.228,574.232 268.495,581.092 266.5,588 C263.599,598.044 266.795,608.872 271.42,617.994 " fill="none" id="2,0,0-3,0,0" style="stroke: #A80036; stroke-width: 1.0;"/><polygon fill="#A80036" points="273.945,622.596,273.1234,612.7815,271.5402,618.2123,266.1094,616.6291,273.945,622.596" style="stroke: #A80036; stroke-width: 1.0;"/><text fill="#000000" font-family="sans-serif" font-size="11" lengthAdjust="spacingAndGlyphs" textLength="6" x="267.5" y="600.4189">5</text><!--link 3,0,0 to 2,0,0--><path d="M287.072,622.723 C287.549,608.734 288.232,588.698 288.752,573.438 " fill="none" id="3,0,0-2,0,0" style="stroke: #A80036; stroke-width: 1.0;"/><polygon fill="#A80036" points="288.936,568.052,284.6323,576.9108,288.766,573.0491,292.6277,577.1828,288.936,568.052" style="stroke: #A80036; stroke-width: 1.0;"/><text fill="#000000" font-family="sans-serif" font-size="11" lengthAdjust="spacingAndGlyphs" textLength="6" x="289.5" y="600.4189">5</text><!--link 3,0,0 to 4,0,0--><path d="M268.872,658.161 C263.925,663.924 259.171,670.767 256.5,678 C253.05,687.343 252.413,698.305 252.794,707.708 " fill="none" id="3,0,0-4,0,0" style="stroke: #A80036; stroke-width: 1.0;"/><polygon fill="#A80036" points="253.099,712.751,256.5466,703.5253,252.7962,707.7602,248.5613,704.0098,253.099,712.751" style="stroke: #A80036; stroke-width: 1.0;"/><text fill="#000000" font-family="sans-serif" font-size="11" lengthAdjust="spacingAndGlyphs" textLength="6" x="257.5" y="690.4189">5</text><!--link 4,0,0 to 3,0,0--><path d="M261.41,712.723 C266.381,698.611 273.52,678.346 278.913,663.038 " fill="none" id="4,0,0-3,0,0" style="stroke: #A80036; stroke-width: 1.0;"/><polygon fill="#A80036" points="280.669,658.052,273.9056,665.2114,279.0075,662.7679,281.451,667.8698,280.669,658.052" style="stroke: #A80036; stroke-width: 1.0;"/><text fill="#000000" font-family="sans-serif" font-size="11" lengthAdjust="spacingAndGlyphs" textLength="6" x="274.5" y="690.4189">5</text><!--link 4,0,0 to 5,0,0--><path d="M237.207,748.0377 C232.09,753.7945 227.195,760.6643 224.5,768 C220.786,778.1107 224.51,789.041 229.966,798.2199 " fill="none" id="4,0,0-5,0,0" style="stroke: #A80036; stroke-width: 1.0;"/><polygon fill="#A80036" points="232.759,802.5739,231.2669,792.8387,230.0595,798.3652,224.533,797.1579,232.759,802.5739" style="stroke: #A80036; stroke-width: 1.0;"/><text fill="#000000" font-family="sans-serif" font-size="11" lengthAdjust="spacingAndGlyphs" textLength="6" x="225.5" y="780.4189">5</text><!--link 5,0,0 to 4,0,0--><path d="M249.025,802.7229 C250.308,788.6114 252.15,768.3459 253.542,753.0376 " fill="none" id="5,0,0-4,0,0" style="stroke: #A80036; stroke-width: 1.0;"/><polygon fill="#A80036" points="253.995,748.0521,249.1962,756.6527,253.5421,753.0315,257.1633,757.3774,253.995,748.0521" style="stroke: #A80036; stroke-width: 1.0;"/><text fill="#000000" font-family="sans-serif" font-size="11" lengthAdjust="spacingAndGlyphs" textLength="6" x="253.5" y="780.4189">5</text><!--
@startuml
(*) - -> [1] "null,null,null"
"null,null,null" - -> [1] "0,null,null"
"0,null,null" - -> [1] "0,0,null"
"0,0,null" - -> [1] "0,0,0"
"0,0,0" - -> [1] "0,0,2"
"0,0,2" - -> [2] "0,1,2"
"0,1,2" - -> [2] "0,0,2"
"0,0,2" - -> [1] "0,0,5"
"0,0,5" - -> [20] "0,1,5"
"0,1,5" - -> [20] "0,0,5"
"0,0,5" - -> [1] "0,0,4"
"0,0,4" - -> [1] "0,1,4"
"0,1,4" - -> [1] "0,0,4"
"0,0,4" - -> [1] "0,0,3"
"0,0,3" - -> [1] "0,1,3"
"0,1,3" - -> [1] "0,0,3"
"0,0,3" - -> [1] "0,0,2"
"0,0,2" - -> [1] "0,0,1"
"0,0,1" - -> [1] "0,1,1"
"0,1,1" - -> [1] "0,0,1"
"0,0,1" - -> [1] "0,0,0"
"0,0,0" - -> [5] "1,0,0"
"1,0,0" - -> [5] "2,0,0"
"2,0,0" - -> [5] "3,0,0"
"3,0,0" - -> [5] "4,0,0"
"4,0,0" - -> [5] "5,0,0"
"5,0,0" - -> [5] "4,0,0"
"4,0,0" - -> [5] "3,0,0"
"3,0,0" - -> [5] "2,0,0"
"2,0,0" - -> [5] "1,0,0"
"1,0,0" - -> [5] "0,0,0" #red
@enduml

PlantUML version 1.2019.00(Sun Jan 13 10:46:42 EST 2019)
(EPL source distribution)
Java Runtime: Java(TM) SE Runtime Environment
JVM: Java HotSpot(TM) 64-Bit Server VM
Java Version: 1.8.0_201-b09
Operating System: Windows 10
OS Version: 10.0
Default Encoding: Cp1252
Language: en
Country: US
--></g></svg>