<svg xmlns="http://www.w3.org/2000/svg" style="width: 92px; height: 579px;" viewBox="0 0 92 579" preserveAspectRatio="none meet" width="92px" height="579px" contentScriptType="application/ecmascript" contentStyleType="text/css" zoomAndPan="magnify" version="1.1"><defs><filter id="ft92x4v9qn572" x="-1" y="-1" width="300%" height="300%"><feGaussianBlur result="blurOut" stdDeviation="2" /><feColorMatrix result="blurOut2" in="blurOut" type="matrix" values="0 0 0 0 0 0 0 0 0 0 0 0 0 0 0 0 0 0 0.4 0" /><feOffset result="blurOut3" in="blurOut2" dx="4" dy="4" /><feBlend in="SourceGraphic" in2="blurOut3" mode="normal" /></filter></defs><g><ellipse filter="url(&quot;#ft92x4v9qn572&quot;)" style="stroke: none; stroke-width: 1;" fill="#000000" cx="61.5" cy="18" rx="10" ry="10" /><rect filter="url(&quot;#ft92x4v9qn572&quot;)" style="stroke: #a80036; stroke-width: 1.5;" fill="#fefece" x="41.5" y="83" width="40" height="35.0938" rx="12.5" ry="12.5" /><text font-family="sans-serif" font-size="12" fill="#000000" lengthAdjust="spacingAndGlyphs" textLength="20" x="51.5" y="105.457">null</text><rect filter="url(&quot;#ft92x4v9qn572&quot;)" style="stroke: #a80036; stroke-width: 1.5;" fill="#ff0000" x="48" y="173" width="27" height="35.0938" rx="12.5" ry="12.5" /><text font-family="sans-serif" font-size="12" fill="#000000" lengthAdjust="spacingAndGlyphs" textLength="7" x="58" y="195.457">5</text><rect filter="url(&quot;#ft92x4v9qn572&quot;)" style="stroke: #a80036; stroke-width: 1.5;" fill="#fefece" x="8" y="263" width="27" height="35.0938" rx="12.5" ry="12.5" /><text font-family="sans-serif" font-size="12" fill="#000000" lengthAdjust="spacingAndGlyphs" textLength="7" x="18" y="285.457">4</text><rect filter="url(&quot;#ft92x4v9qn572&quot;)" style="stroke: #a80036; stroke-width: 1.5;" fill="#fefece" x="42" y="353" width="27" height="35.0938" rx="12.5" ry="12.5" /><text font-family="sans-serif" font-size="12" fill="#000000" lengthAdjust="spacingAndGlyphs" textLength="7" x="52" y="375.457">3</text><rect filter="url(&quot;#ft92x4v9qn572&quot;)" style="stroke: #a80036; stroke-width: 1.5;" fill="#fefece" x="6" y="443" width="27" height="35.0938" rx="12.5" ry="12.5" /><text font-family="sans-serif" font-size="12" fill="#000000" lengthAdjust="spacingAndGlyphs" textLength="7" x="16" y="465.457">2</text><rect filter="url(&quot;#ft92x4v9qn572&quot;)" style="stroke: #a80036; stroke-width: 1.5;" fill="#fefece" x="37" y="533" width="27" height="35.0938" rx="12.5" ry="12.5" /><text font-family="sans-serif" font-size="12" fill="#000000" lengthAdjust="spacingAndGlyphs" textLength="7" x="47" y="555.457">1</text><!--link start to null--><path id="start-null" style="stroke: #a80036; stroke-width: 1;" fill="none" d="M 61.5 28.234 C 61.5 40.182 61.5 61.38 61.5 77.561" /><polygon style="stroke: #a80036; stroke-width: 1;" fill="#a80036" points="61.5,82.836 65.5,73.836 61.5,77.836 57.5,73.836 61.5,82.836" /><text font-family="sans-serif" font-size="11" fill="#000000" lengthAdjust="spacingAndGlyphs" textLength="6" x="62.5" y="60.4189">1</text><!--link null to 5--><path id="null-5" style="stroke: #a80036; stroke-width: 1;" fill="none" d="M 61.5 118.052 C 61.5 132.098 61.5 152.357 61.5 167.717" /><polygon style="stroke: #a80036; stroke-width: 1;" fill="#a80036" points="61.5,172.723 65.5,163.723 61.5,167.723 57.5,163.723 61.5,172.723" /><text font-family="sans-serif" font-size="11" fill="#000000" lengthAdjust="spacingAndGlyphs" textLength="6" x="62.5" y="150.4189">1</text><!--link 5 to 4--><path id="5-4" style="stroke: #a80036; stroke-width: 1;" fill="none" d="M 53.9763 208.052 C 47.5364 222.22 38.223 242.709 31.2196 258.117" /><polygon style="stroke: #a80036; stroke-width: 1;" fill="#a80036" points="29.126,262.723 36.4912,256.184 31.1946,258.171 29.2079,252.874 29.126,262.723" /><text font-family="sans-serif" font-size="11" fill="#000000" lengthAdjust="spacingAndGlyphs" textLength="6" x="45.5" y="240.4189">1</text><!--link 4 to 3--><path id="4-3" style="stroke: #a80036; stroke-width: 1;" fill="none" d="M 27.8951 298.052 C 33.3219 312.098 41.1491 332.357 47.084 347.717" /><polygon style="stroke: #a80036; stroke-width: 1;" fill="#a80036" points="49.0179,352.723 49.5039,342.886 47.2152,348.059 42.042,345.771 49.0179,352.723" /><text font-family="sans-serif" font-size="11" fill="#000000" lengthAdjust="spacingAndGlyphs" textLength="6" x="42.5" y="330.4189">1</text><!--link 3 to 2--><path id="3-2" style="stroke: #a80036; stroke-width: 1;" fill="none" d="M 46.8221 388.019 C 43.7117 394.21 40.2878 401.354 37.5 408 C 33.4812 417.58 29.6017 428.405 26.48 437.65" /><polygon style="stroke: #a80036; stroke-width: 1;" fill="#a80036" points="24.8276,442.605 31.4688,435.332 26.409,437.862 23.8795,432.802 24.8276,442.605" /><text font-family="sans-serif" font-size="11" fill="#000000" lengthAdjust="spacingAndGlyphs" textLength="18" x="38.5" y="420.4189">249</text><!--link 2 to 1--><path id="2-1" style="stroke: #a80036; stroke-width: 1;" fill="none" d="M 25.3117 478.208 C 28.8254 488.29 33.4032 501.389 37.5 513 C 39.2122 517.853 41.062 523.065 42.8142 527.988" /><polygon style="stroke: #a80036; stroke-width: 1;" fill="#a80036" points="44.5252,532.79 45.2728,522.97 42.8472,528.08 37.7368,525.655 44.5252,532.79" /><text font-family="sans-serif" font-size="11" fill="#000000" lengthAdjust="spacingAndGlyphs" textLength="18" x="38.5" y="510.4189">249</text><!--link 1 to 3--><path id="1-3" style="stroke: #a80036; stroke-width: 1;" fill="none" d="M 54.9285 532.908 C 56.3728 526.709 57.7875 519.578 58.5 513 C 63.0638 470.861 60.1151 421.263 57.7059 393.392" /><polygon style="stroke: #a80036; stroke-width: 1;" fill="#a80036" points="57.2337,388.116 54.0519,397.437 57.6794,393.096 62.0201,396.724 57.2337,388.116" /><text font-family="sans-serif" font-size="11" fill="#000000" lengthAdjust="spacingAndGlyphs" textLength="18" x="62.5" y="465.4189">249</text><!--link 3 to 5--><path id="3-5" style="stroke: #a80036; stroke-width: 1;" fill="none" d="M 56.0586 352.928 C 57.1466 320.651 59.5495 249.364 60.7651 213.302" /><polygon style="stroke: #a80036; stroke-width: 1;" fill="#a80036" points="60.9355,208.246 56.6343,217.106 60.7669,213.243 64.6298,217.376 60.9355,208.246" /><text font-family="sans-serif" font-size="11" fill="#000000" lengthAdjust="spacingAndGlyphs" textLength="6" x="60.5" y="285.4189">1</text><!--
@startuml
(*) - -> [1] "null"
"null" - -> [1] "5"
"5" - -> [1] "4"
"4" - -> [1] "3"
"3" - -> [249] "2"
"2" - -> [249] "1"
"1" - -> [249] "3"
"3" - -> [1] "5" #red
@enduml

PlantUML version 1.2019.00(Sun Jan 13 10:46:42 EST 2019)
(EPL source distribution)
Java Runtime: Java(TM) SE Runtime Environment
JVM: Java HotSpot(TM) 64-Bit Server VM
Java Version: 1.8.0_201-b09
Operating System: Windows 10
OS Version: 10.0
Default Encoding: Cp1252
Language: en
Country: US
--></g></svg>