<svg xmlns="http://www.w3.org/2000/svg" style="width: 787px; height: 1479px;" viewBox="0 0 787 1479" preserveAspectRatio="none meet" width="787px" height="1479px" contentScriptType="application/ecmascript" contentStyleType="text/css" zoomAndPan="magnify" version="1.1"><defs><filter id="fqvjubu1etj6e" x="-1" y="-1" width="300%" height="300%"><feGaussianBlur result="blurOut" stdDeviation="2" /><feColorMatrix result="blurOut2" in="blurOut" type="matrix" values="0 0 0 0 0 0 0 0 0 0 0 0 0 0 0 0 0 0 0.4 0" /><feOffset result="blurOut3" in="blurOut2" dx="4" dy="4" /><feBlend in="SourceGraphic" in2="blurOut3" mode="normal" /></filter></defs><g><ellipse filter="url(&quot;#fqvjubu1etj6e&quot;)" style="stroke: none; stroke-width: 1;" fill="#000000" cx="393" cy="18" rx="10" ry="10" /><rect filter="url(&quot;#fqvjubu1etj6e&quot;)" style="stroke: #a80036; stroke-width: 1.5;" fill="#fefece" x="327" y="83" width="132" height="35.0938" rx="12.5" ry="12.5" /><text font-family="sans-serif" font-size="12" fill="#000000" lengthAdjust="spacingAndGlyphs" textLength="112" x="337" y="105.457">null,null,null,null,null</text><rect filter="url(&quot;#fqvjubu1etj6e&quot;)" style="stroke: #a80036; stroke-width: 1.5;" fill="#fefece" x="329.5" y="173" width="127" height="35.0938" rx="12.5" ry="12.5" /><text font-family="sans-serif" font-size="12" fill="#000000" lengthAdjust="spacingAndGlyphs" textLength="107" x="339.5" y="195.457">~E,null,null,null,null</text><rect filter="url(&quot;#fqvjubu1etj6e&quot;)" style="stroke: #a80036; stroke-width: 1.5;" fill="#fefece" x="332" y="263" width="122" height="35.0938" rx="12.5" ry="12.5" /><text font-family="sans-serif" font-size="12" fill="#000000" lengthAdjust="spacingAndGlyphs" textLength="102" x="342" y="285.457">~E,~E,null,null,null</text><rect filter="url(&quot;#fqvjubu1etj6e&quot;)" style="stroke: #a80036; stroke-width: 1.5;" fill="#fefece" x="334.5" y="353" width="117" height="35.0938" rx="12.5" ry="12.5" /><text font-family="sans-serif" font-size="12" fill="#000000" lengthAdjust="spacingAndGlyphs" textLength="97" x="344.5" y="375.457">~E,~E,~E,null,null</text><rect filter="url(&quot;#fqvjubu1etj6e&quot;)" style="stroke: #a80036; stroke-width: 1.5;" fill="#fefece" x="337" y="443" width="112" height="35.0938" rx="12.5" ry="12.5" /><text font-family="sans-serif" font-size="12" fill="#000000" lengthAdjust="spacingAndGlyphs" textLength="92" x="347" y="465.457">~E,~E,~E,~E,null</text><rect filter="url(&quot;#fqvjubu1etj6e&quot;)" style="stroke: #a80036; stroke-width: 1.5;" fill="#ff0000" x="339.5" y="533" width="107" height="35.0938" rx="12.5" ry="12.5" /><text font-family="sans-serif" font-size="12" fill="#000000" lengthAdjust="spacingAndGlyphs" textLength="87" x="349.5" y="555.457">~E,~E,~E,~E,~E</text><rect filter="url(&quot;#fqvjubu1etj6e&quot;)" style="stroke: #a80036; stroke-width: 1.5;" fill="#fefece" x="205" y="623" width="100" height="35.0938" rx="12.5" ry="12.5" /><text font-family="sans-serif" font-size="12" fill="#000000" lengthAdjust="spacingAndGlyphs" textLength="80" x="215" y="645.457">E,~E,~E,~E,~E</text><rect filter="url(&quot;#fqvjubu1etj6e&quot;)" style="stroke: #a80036; stroke-width: 1.5;" fill="#fefece" x="163.5" y="713" width="93" height="35.0938" rx="12.5" ry="12.5" /><text font-family="sans-serif" font-size="12" fill="#000000" lengthAdjust="spacingAndGlyphs" textLength="73" x="173.5" y="735.457">E,~E,~E,E,~E</text><rect filter="url(&quot;#fqvjubu1etj6e&quot;)" style="stroke: #a80036; stroke-width: 1.5;" fill="#fefece" x="215" y="1343" width="100" height="35.0938" rx="12.5" ry="12.5" /><text font-family="sans-serif" font-size="12" fill="#000000" lengthAdjust="spacingAndGlyphs" textLength="80" x="225" y="1365.457">~E,~E,E,~E,~E</text><rect filter="url(&quot;#fqvjubu1etj6e&quot;)" style="stroke: #a80036; stroke-width: 1.5;" fill="#fefece" x="419" y="1163" width="100" height="35.0938" rx="12.5" ry="12.5" /><text font-family="sans-serif" font-size="12" fill="#000000" lengthAdjust="spacingAndGlyphs" textLength="80" x="429" y="1185.457">~E,~E,~E,E,~E</text><rect filter="url(&quot;#fqvjubu1etj6e&quot;)" style="stroke: #a80036; stroke-width: 1.5;" fill="#fefece" x="423" y="983" width="100" height="35.0938" rx="12.5" ry="12.5" /><text font-family="sans-serif" font-size="12" fill="#000000" lengthAdjust="spacingAndGlyphs" textLength="80" x="433" y="1005.457">~E,E,~E,~E,~E</text><rect filter="url(&quot;#fqvjubu1etj6e&quot;)" style="stroke: #a80036; stroke-width: 1.5;" fill="#fefece" x="643" y="803" width="100" height="35.0938" rx="12.5" ry="12.5" /><text font-family="sans-serif" font-size="12" fill="#000000" lengthAdjust="spacingAndGlyphs" textLength="80" x="653" y="825.457">~E,~E,~E,~E,E</text><rect filter="url(&quot;#fqvjubu1etj6e&quot;)" style="stroke: #a80036; stroke-width: 1.5;" fill="#fefece" x="455.5" y="1073" width="93" height="35.0938" rx="12.5" ry="12.5" /><text font-family="sans-serif" font-size="12" fill="#000000" lengthAdjust="spacingAndGlyphs" textLength="73" x="465.5" y="1095.457">~E,E,~E,E,~E</text><rect filter="url(&quot;#fqvjubu1etj6e&quot;)" style="stroke: #a80036; stroke-width: 1.5;" fill="#fefece" x="111.5" y="1433" width="93" height="35.0938" rx="12.5" ry="12.5" /><text font-family="sans-serif" font-size="12" fill="#000000" lengthAdjust="spacingAndGlyphs" textLength="73" x="121.5" y="1455.457">E,~E,E,~E,~E</text><rect filter="url(&quot;#fqvjubu1etj6e&quot;)" style="stroke: #a80036; stroke-width: 1.5;" fill="#fefece" x="531.5" y="1433" width="93" height="35.0938" rx="12.5" ry="12.5" /><text font-family="sans-serif" font-size="12" fill="#000000" lengthAdjust="spacingAndGlyphs" textLength="73" x="541.5" y="1455.457">~E,~E,E,~E,E</text><rect filter="url(&quot;#fqvjubu1etj6e&quot;)" style="stroke: #a80036; stroke-width: 1.5;" fill="#fefece" x="316.5" y="1433" width="93" height="35.0938" rx="12.5" ry="12.5" /><text font-family="sans-serif" font-size="12" fill="#000000" lengthAdjust="spacingAndGlyphs" textLength="73" x="326.5" y="1455.457">~E,E,E,~E,~E</text><rect filter="url(&quot;#fqvjubu1etj6e&quot;)" style="stroke: #a80036; stroke-width: 1.5;" fill="#fefece" x="254.5" y="1253" width="93" height="35.0938" rx="12.5" ry="12.5" /><text font-family="sans-serif" font-size="12" fill="#000000" lengthAdjust="spacingAndGlyphs" textLength="73" x="264.5" y="1275.457">~E,~E,E,E,~E</text><rect filter="url(&quot;#fqvjubu1etj6e&quot;)" style="stroke: #a80036; stroke-width: 1.5;" fill="#fefece" x="520.5" y="1253" width="93" height="35.0938" rx="12.5" ry="12.5" /><text font-family="sans-serif" font-size="12" fill="#000000" lengthAdjust="spacingAndGlyphs" textLength="73" x="530.5" y="1275.457">~E,~E,~E,E,E</text><rect filter="url(&quot;#fqvjubu1etj6e&quot;)" style="stroke: #a80036; stroke-width: 1.5;" fill="#fefece" x="487.5" y="893" width="93" height="35.0938" rx="12.5" ry="12.5" /><text font-family="sans-serif" font-size="12" fill="#000000" lengthAdjust="spacingAndGlyphs" textLength="73" x="497.5" y="915.457">~E,E,~E,~E,E</text><rect filter="url(&quot;#fqvjubu1etj6e&quot;)" style="stroke: #a80036; stroke-width: 1.5;" fill="#fefece" x="257.5" y="1073" width="93" height="35.0938" rx="12.5" ry="12.5" /><text font-family="sans-serif" font-size="12" fill="#000000" lengthAdjust="spacingAndGlyphs" textLength="73" x="267.5" y="1095.457">E,E,~E,~E,~E</text><rect filter="url(&quot;#fqvjubu1etj6e&quot;)" style="stroke: #a80036; stroke-width: 1.5;" fill="#fefece" x="487.5" y="713" width="93" height="35.0938" rx="12.5" ry="12.5" /><text font-family="sans-serif" font-size="12" fill="#000000" lengthAdjust="spacingAndGlyphs" textLength="73" x="497.5" y="735.457">E,~E,~E,~E,E</text><!--link start to null,null,null,null,null--><path id="start-null,null,null,null,null" style="stroke: #a80036; stroke-width: 1;" fill="none" d="M 393 28.23 C 393 40.18 393 61.38 393 77.56" /><polygon style="stroke: #a80036; stroke-width: 1;" fill="#a80036" points="393,82.84 397,73.84 393,77.84 389,73.84 393,82.84" /><text font-family="sans-serif" font-size="11" fill="#000000" lengthAdjust="spacingAndGlyphs" textLength="6" x="394" y="60.4189">1</text><!--link null,null,null,null,null to ~E,null,null,null,null--><path id="null,null,null,null,null-~E,null,null,null,null" style="stroke: #a80036; stroke-width: 1;" fill="none" d="M 393 118.05 C 393 132.1 393 152.36 393 167.72" /><polygon style="stroke: #a80036; stroke-width: 1;" fill="#a80036" points="393,172.72 397,163.72 393,167.72 389,163.72 393,172.72" /><text font-family="sans-serif" font-size="11" fill="#000000" lengthAdjust="spacingAndGlyphs" textLength="6" x="394" y="150.4189">1</text><!--link ~E,null,null,null,null to ~E,~E,null,null,null--><path id="~E,null,null,null,null-~E,~E,null,null,null" style="stroke: #a80036; stroke-width: 1;" fill="none" d="M 393 208.05 C 393 222.1 393 242.36 393 257.72" /><polygon style="stroke: #a80036; stroke-width: 1;" fill="#a80036" points="393,262.72 397,253.72 393,257.72 389,253.72 393,262.72" /><text font-family="sans-serif" font-size="11" fill="#000000" lengthAdjust="spacingAndGlyphs" textLength="6" x="394" y="240.4189">1</text><!--link ~E,~E,null,null,null to ~E,~E,~E,null,null--><path id="~E,~E,null,null,null-~E,~E,~E,null,null" style="stroke: #a80036; stroke-width: 1;" fill="none" d="M 393 298.05 C 393 312.1 393 332.36 393 347.72" /><polygon style="stroke: #a80036; stroke-width: 1;" fill="#a80036" points="393,352.72 397,343.72 393,347.72 389,343.72 393,352.72" /><text font-family="sans-serif" font-size="11" fill="#000000" lengthAdjust="spacingAndGlyphs" textLength="6" x="394" y="330.4189">1</text><!--link ~E,~E,~E,null,null to ~E,~E,~E,~E,null--><path id="~E,~E,~E,null,null-~E,~E,~E,~E,null" style="stroke: #a80036; stroke-width: 1;" fill="none" d="M 393 388.05 C 393 402.1 393 422.36 393 437.72" /><polygon style="stroke: #a80036; stroke-width: 1;" fill="#a80036" points="393,442.72 397,433.72 393,437.72 389,433.72 393,442.72" /><text font-family="sans-serif" font-size="11" fill="#000000" lengthAdjust="spacingAndGlyphs" textLength="6" x="394" y="420.4189">1</text><!--link ~E,~E,~E,~E,null to ~E,~E,~E,~E,~E--><path id="~E,~E,~E,~E,null-~E,~E,~E,~E,~E" style="stroke: #a80036; stroke-width: 1;" fill="none" d="M 393 478.052 C 393 492.098 393 512.357 393 527.717" /><polygon style="stroke: #a80036; stroke-width: 1;" fill="#a80036" points="393,532.723 397,523.723 393,527.723 389,523.723 393,532.723" /><text font-family="sans-serif" font-size="11" fill="#000000" lengthAdjust="spacingAndGlyphs" textLength="6" x="394" y="510.4189">1</text><!--link ~E,~E,~E,~E,~E to ~E,~E,~E,~E,~E--><path id="~E,~E,~E,~E,~E-~E,~E,~E,~E,~E" style="stroke: #a80036; stroke-width: 1;" fill="none" d="M 446.515 542.494 C 458.099 543.277 466.5 545.945 466.5 550.5 C 466.5 554.343 460.519 556.843 451.692 558.001" /><polygon style="stroke: #a80036; stroke-width: 1;" fill="#a80036" points="446.515,558.506 455.861,561.613 451.491,558.02 455.084,553.651 446.515,558.506" /><text font-family="sans-serif" font-size="11" fill="#000000" lengthAdjust="spacingAndGlyphs" textLength="18" x="472.5" y="555.4189">226</text><!--link ~E,~E,~E,~E,~E to E,~E,~E,~E,~E--><path id="~E,~E,~E,~E,~E-E,~E,~E,~E,~E" style="stroke: #a80036; stroke-width: 1;" fill="none" d="M 339.344 559.188 C 318.548 564.43 295.762 573.231 279 588 C 270.096 595.846 264.26 607.692 260.575 618.045" /><polygon style="stroke: #a80036; stroke-width: 1;" fill="#a80036" points="258.935,622.984 265.567,615.703 260.511,618.239 257.975,613.182 258.935,622.984" /><text font-family="sans-serif" font-size="11" fill="#000000" lengthAdjust="spacingAndGlyphs" textLength="12" x="280" y="600.4189">46</text><!--link E,~E,~E,~E,~E to ~E,~E,~E,~E,~E--><path id="E,~E,~E,~E,~E-~E,~E,~E,~E,~E" style="stroke: #a80036; stroke-width: 1;" fill="none" d="M 281.31 622.723 C 304.497 607.936 338.281 586.393 362.614 570.876" /><polygon style="stroke: #a80036; stroke-width: 1;" fill="#a80036" points="367.043,568.052 357.304,569.516 362.827,570.74 361.604,576.263 367.043,568.052" /><text font-family="sans-serif" font-size="11" fill="#000000" lengthAdjust="spacingAndGlyphs" textLength="12" x="334" y="600.4189">44</text><!--link E,~E,~E,~E,~E to E,~E,~E,E,~E--><path id="E,~E,~E,~E,~E-E,~E,~E,E,~E" style="stroke: #a80036; stroke-width: 1;" fill="none" d="M 246.536 658.052 C 239.291 672.22 228.813 692.709 220.935 708.117" /><polygon style="stroke: #a80036; stroke-width: 1;" fill="#a80036" points="218.579,712.723 226.239,706.532 220.856,708.272 219.117,702.889 218.579,712.723" /><text font-family="sans-serif" font-size="11" fill="#000000" lengthAdjust="spacingAndGlyphs" textLength="6" x="237" y="690.4189">7</text><!--link E,~E,~E,E,~E to E,~E,~E,~E,~E--><path id="E,~E,~E,E,~E-E,~E,~E,~E,~E" style="stroke: #a80036; stroke-width: 1;" fill="none" d="M 209.521 712.903 C 209.86 702.383 211.521 688.778 217 678 C 220.039 672.022 224.454 666.474 229.207 661.601" /><polygon style="stroke: #a80036; stroke-width: 1;" fill="#a80036" points="232.891,658.01 223.655,661.43 229.311,661.501 229.241,667.157 232.891,658.01" /><text font-family="sans-serif" font-size="11" fill="#000000" lengthAdjust="spacingAndGlyphs" textLength="6" x="218" y="690.4189">5</text><!--link ~E,~E,~E,~E,~E to ~E,~E,E,~E,~E--><path id="~E,~E,~E,~E,~E-~E,~E,E,~E,~E" style="stroke: #a80036; stroke-width: 1;" fill="none" d="M 339.179 556.035 C 252.109 564.873 90 588.214 90 639.5 C 90 639.5 90 639.5 90 1271.5 C 90 1325.91 158.364 1346.69 209.634 1354.61" /><polygon style="stroke: #a80036; stroke-width: 1;" fill="#a80036" points="214.852,1355.38 206.534,1350.11 209.906,1354.65 205.364,1358.02 214.852,1355.38" /><text font-family="sans-serif" font-size="11" fill="#000000" lengthAdjust="spacingAndGlyphs" textLength="12" x="91" y="960.4189">43</text><!--link ~E,~E,E,~E,~E to ~E,~E,~E,~E,~E--><path id="~E,~E,E,~E,~E-~E,~E,~E,~E,~E" style="stroke: #a80036; stroke-width: 1;" fill="none" d="M 214.943 1360.06 C 150.858 1357.85 48 1343.15 48 1271.5 C 48 639.5 48 639.5 48 639.5 C 48 581.126 235.788 560.986 334.273 554.438" /><polygon style="stroke: #a80036; stroke-width: 1;" fill="#a80036" points="339.472,554.099 330.231,550.694 334.483,554.425 330.752,558.677 339.472,554.099" /><text font-family="sans-serif" font-size="11" fill="#000000" lengthAdjust="spacingAndGlyphs" textLength="12" x="49" y="960.4189">39</text><!--link ~E,~E,~E,~E,~E to ~E,~E,~E,E,~E--><path id="~E,~E,~E,~E,~E-~E,~E,~E,E,~E" style="stroke: #a80036; stroke-width: 1;" fill="none" d="M 386.585 568.089 C 380.409 585.574 372 614.055 372 639.5 C 372 639.5 372 639.5 372 866.5 C 372 980.858 431.807 1108.61 457.498 1158.21" /><polygon style="stroke: #a80036; stroke-width: 1;" fill="#a80036" points="459.874,1162.77 459.255,1152.94 457.56,1158.33 452.163,1156.64 459.874,1162.77" /><text font-family="sans-serif" font-size="11" fill="#000000" lengthAdjust="spacingAndGlyphs" textLength="12" x="373" y="870.4189">38</text><!--link ~E,~E,~E,E,~E to ~E,~E,~E,~E,~E--><path id="~E,~E,~E,E,~E-~E,~E,~E,~E,~E" style="stroke: #a80036; stroke-width: 1;" fill="none" d="M 499.197 1162.8 C 518.978 1150.29 543.725 1131.33 558 1108 C 615.205 1014.5 608 976.11 608 866.5 C 612 639.5 612 639.5 612 639.5 C 612 604.856 516.451 577.585 451.579 563.061" /><polygon style="stroke: #a80036; stroke-width: 1;" fill="#a80036" points="446.573,561.952 454.493,567.806 451.454,563.035 456.226,559.996 446.573,561.952" /><text font-family="sans-serif" font-size="11" fill="#000000" lengthAdjust="spacingAndGlyphs" textLength="12" x="613" y="870.4189">37</text><!--link ~E,~E,~E,E,~E to ~E,~E,~E,E,~E--><path id="~E,~E,~E,E,~E-~E,~E,~E,E,~E" style="stroke: #a80036; stroke-width: 1;" fill="none" d="M 519.023 1172.43 C 530.54 1173.13 539 1175.82 539 1180.5 C 539 1184.45 532.977 1186.98 524.177 1188.1" /><polygon style="stroke: #a80036; stroke-width: 1;" fill="#a80036" points="519.023,1188.57 528.351,1191.73 524.002,1188.11 527.62,1183.76 519.023,1188.57" /><text font-family="sans-serif" font-size="11" fill="#000000" lengthAdjust="spacingAndGlyphs" textLength="6" x="545" y="1185.4189">3</text><!--link ~E,~E,~E,~E,~E to ~E,E,~E,~E,~E--><path id="~E,~E,~E,~E,~E-~E,E,~E,~E,~E" style="stroke: #a80036; stroke-width: 1;" fill="none" d="M 414.681 568.185 C 432.905 584.26 456 610.377 456 639.5 C 456 639.5 456 639.5 456 911.5 C 456 934.344 461.591 959.929 466.36 977.597" /><polygon style="stroke: #a80036; stroke-width: 1;" fill="#a80036" points="467.807,982.815 469.257,973.073 466.471,977.997 461.548,975.211 467.807,982.815" /><text font-family="sans-serif" font-size="11" fill="#000000" lengthAdjust="spacingAndGlyphs" textLength="12" x="457" y="780.4189">41</text><!--link ~E,E,~E,~E,~E to ~E,~E,~E,~E,~E--><path id="~E,E,~E,~E,~E-~E,~E,~E,~E,~E" style="stroke: #a80036; stroke-width: 1;" fill="none" d="M 453.025 982.842 C 435.909 966.595 414 940.194 414 911.5 C 414 639.5 414 639.5 414 639.5 C 414 616.242 406.974 590.447 401.05 572.832" /><polygon style="stroke: #a80036; stroke-width: 1;" fill="#a80036" points="399.415,568.089 398.565,577.901 401.044,572.816 406.128,575.295 399.415,568.089" /><text font-family="sans-serif" font-size="11" fill="#000000" lengthAdjust="spacingAndGlyphs" textLength="12" x="415" y="780.4189">43</text><!--link ~E,E,~E,~E,~E to ~E,E,~E,~E,~E--><path id="~E,E,~E,~E,~E-~E,E,~E,~E,~E" style="stroke: #a80036; stroke-width: 1;" fill="none" d="M 523.023 992.432 C 534.54 993.127 543 995.816 543 1000.5 C 543 1004.45 536.977 1006.98 528.177 1008.1" /><polygon style="stroke: #a80036; stroke-width: 1;" fill="#a80036" points="523.023,1008.57 532.351,1011.73 528.002,1008.11 531.62,1003.76 523.023,1008.57" /><text font-family="sans-serif" font-size="11" fill="#000000" lengthAdjust="spacingAndGlyphs" textLength="6" x="549" y="1005.4189">5</text><!--link ~E,~E,~E,~E,~E to ~E,~E,~E,~E,E--><path id="~E,~E,~E,~E,~E-~E,~E,~E,~E,E" style="stroke: #a80036; stroke-width: 1;" fill="none" d="M 446.716 550.968 C 518.466 551.488 640.05 557.077 670 588 C 725.6 645.408 708.99 752.378 698.58 797.994" /><polygon style="stroke: #a80036; stroke-width: 1;" fill="#a80036" points="697.409,802.989 703.358,795.14 698.55,798.121 695.569,793.314 697.409,802.989" /><text font-family="sans-serif" font-size="11" fill="#000000" lengthAdjust="spacingAndGlyphs" textLength="12" x="709" y="690.4189">43</text><!--link ~E,~E,~E,~E,E to ~E,~E,~E,~E,~E--><path id="~E,~E,~E,~E,E-~E,~E,~E,~E,~E" style="stroke: #a80036; stroke-width: 1;" fill="none" d="M 693.892 802.987 C 695.22 760.192 692.334 645.064 628 588 C 602.576 565.449 512.673 556.808 451.731 553.512" /><polygon style="stroke: #a80036; stroke-width: 1;" fill="#a80036" points="446.662,553.246 455.441,557.711 451.655,553.507 455.859,549.722 446.662,553.246" /><text font-family="sans-serif" font-size="11" fill="#000000" lengthAdjust="spacingAndGlyphs" textLength="12" x="684" y="690.4189">48</text><!--link ~E,~E,~E,E,~E to ~E,E,~E,E,~E--><path id="~E,~E,~E,E,~E-~E,E,~E,E,~E" style="stroke: #a80036; stroke-width: 1;" fill="none" d="M 466.936 1162.7 C 466.315 1152.35 466.713 1139.01 471 1128 C 473.216 1122.31 476.712 1116.88 480.571 1112.03" /><polygon style="stroke: #a80036; stroke-width: 1;" fill="#a80036" points="483.877,1108.1 475.023,1112.42 480.659,1111.93 481.146,1117.56 483.877,1108.1" /><text font-family="sans-serif" font-size="11" fill="#000000" lengthAdjust="spacingAndGlyphs" textLength="6" x="472" y="1140.4189">3</text><!--link ~E,E,~E,E,~E to ~E,~E,~E,E,~E--><path id="~E,E,~E,E,~E-~E,~E,~E,E,~E" style="stroke: #a80036; stroke-width: 1;" fill="none" d="M 495.793 1108.05 C 490.526 1122.1 482.929 1142.36 477.168 1157.72" /><polygon style="stroke: #a80036; stroke-width: 1;" fill="#a80036" points="475.291,1162.72 482.197,1155.7 477.047,1158.04 474.706,1152.89 475.291,1162.72" /><text font-family="sans-serif" font-size="11" fill="#000000" lengthAdjust="spacingAndGlyphs" textLength="6" x="489" y="1140.4189">2</text><!--link ~E,E,~E,E,~E to ~E,E,~E,~E,~E--><path id="~E,E,~E,E,~E-~E,E,~E,~E,~E" style="stroke: #a80036; stroke-width: 1;" fill="none" d="M 497.484 1072.69 C 494.672 1062.57 490.864 1049.47 487 1038 C 485.343 1033.08 483.426 1027.84 481.553 1022.91" /><polygon style="stroke: #a80036; stroke-width: 1;" fill="#a80036" points="479.705,1018.11 479.207,1027.95 481.502,1022.78 486.673,1025.07 479.705,1018.11" /><text font-family="sans-serif" font-size="11" fill="#000000" lengthAdjust="spacingAndGlyphs" textLength="6" x="493" y="1050.4189">3</text><!--link ~E,E,~E,~E,~E to ~E,E,~E,E,~E--><path id="~E,E,~E,~E,~E-~E,E,~E,E,~E" style="stroke: #a80036; stroke-width: 1;" fill="none" d="M 473.55 1018.14 C 474.304 1028.43 476.042 1041.77 480 1053 C 481.845 1058.24 484.498 1063.54 487.328 1068.42" /><polygon style="stroke: #a80036; stroke-width: 1;" fill="#a80036" points="489.957,1072.77 488.721,1063 487.369,1068.49 481.876,1067.14 489.957,1072.77" /><text font-family="sans-serif" font-size="11" fill="#000000" lengthAdjust="spacingAndGlyphs" textLength="6" x="481" y="1050.4189">2</text><!--link ~E,~E,~E,~E,E to ~E,~E,~E,~E,E--><path id="~E,~E,~E,~E,E-~E,~E,~E,~E,E" style="stroke: #a80036; stroke-width: 1;" fill="none" d="M 743.023 812.432 C 754.54 813.127 763 815.816 763 820.5 C 763 824.452 756.977 826.984 748.177 828.096" /><polygon style="stroke: #a80036; stroke-width: 1;" fill="#a80036" points="743.023,828.568 752.351,831.728 748.002,828.111 751.62,823.762 743.023,828.568" /><text font-family="sans-serif" font-size="11" fill="#000000" lengthAdjust="spacingAndGlyphs" textLength="6" x="769" y="825.4189">5</text><!--link ~E,~E,E,~E,~E to ~E,~E,E,~E,~E--><path id="~E,~E,E,~E,~E-~E,~E,E,~E,~E" style="stroke: #a80036; stroke-width: 1;" fill="none" d="M 315.023 1352.43 C 326.54 1353.13 335 1355.82 335 1360.5 C 335 1364.45 328.977 1366.98 320.177 1368.1" /><polygon style="stroke: #a80036; stroke-width: 1;" fill="#a80036" points="315.023,1368.57 324.351,1371.73 320.002,1368.11 323.62,1363.76 315.023,1368.57" /><text font-family="sans-serif" font-size="11" fill="#000000" lengthAdjust="spacingAndGlyphs" textLength="6" x="341" y="1365.4189">6</text><!--link ~E,~E,E,~E,~E to E,~E,E,~E,~E--><path id="~E,~E,E,~E,~E-E,~E,E,~E,~E" style="stroke: #a80036; stroke-width: 1;" fill="none" d="M 241.754 1378.18 C 233.504 1384.27 224.227 1391.3 216 1398 C 203.722 1407.99 190.489 1419.67 179.768 1429.37" /><polygon style="stroke: #a80036; stroke-width: 1;" fill="#a80036" points="175.938,1432.85 185.29,1429.76 179.639,1429.49 179.911,1423.84 175.938,1432.85" /><text font-family="sans-serif" font-size="11" fill="#000000" lengthAdjust="spacingAndGlyphs" textLength="6" x="217" y="1410.4189">3</text><!--link E,~E,E,~E,~E to ~E,~E,E,~E,~E--><path id="E,~E,E,~E,~E-~E,~E,E,~E,~E" style="stroke: #a80036; stroke-width: 1;" fill="none" d="M 194.87 1432.92 C 205.184 1427.37 216.019 1420.64 225 1413 C 235.264 1404.27 244.629 1392.53 251.712 1382.46" /><polygon style="stroke: #a80036; stroke-width: 1;" fill="#a80036" points="254.605,1378.27 246.205,1383.41 251.768,1382.38 252.793,1387.95 254.605,1378.27" /><text font-family="sans-serif" font-size="11" fill="#000000" lengthAdjust="spacingAndGlyphs" textLength="6" x="240" y="1410.4189">2</text><!--link E,~E,E,~E,~E to E,~E,~E,~E,~E--><path id="E,~E,E,~E,~E-E,~E,~E,~E,~E" style="stroke: #a80036; stroke-width: 1;" fill="none" d="M 149.916 1432.73 C 142.284 1415.34 132 1387.15 132 1361.5 C 132 729.5 132 729.5 132 729.5 C 132 693.463 167.355 670.772 200.155 657.476" /><polygon style="stroke: #a80036; stroke-width: 1;" fill="#a80036" points="204.971,655.582 195.132,655.153 200.318,657.412 198.059,662.598 204.971,655.582" /><text font-family="sans-serif" font-size="11" fill="#000000" lengthAdjust="spacingAndGlyphs" textLength="6" x="133" y="1050.4189">4</text><!--link E,~E,~E,~E,~E to E,~E,E,~E,~E--><path id="E,~E,~E,~E,~E-E,~E,E,~E,~E" style="stroke: #a80036; stroke-width: 1;" fill="none" d="M 204.911 648.8 C 132.199 660.827 6 687.72 6 729.5 C 6 729.5 6 729.5 6 1361.5 C 6 1408.92 62.0871 1431.2 106.121 1441.39" /><polygon style="stroke: #a80036; stroke-width: 1;" fill="#a80036" points="111.155,1442.51 103.244,1436.64 106.275,1441.42 101.499,1444.45 111.155,1442.51" /><text font-family="sans-serif" font-size="11" fill="#000000" lengthAdjust="spacingAndGlyphs" textLength="6" x="7" y="1050.4189">3</text><!--link ~E,~E,E,~E,~E to ~E,~E,E,~E,E--><path id="~E,~E,E,~E,~E-~E,~E,E,~E,E" style="stroke: #a80036; stroke-width: 1;" fill="none" d="M 315.289 1375.64 C 373.278 1391.94 468.103 1418.6 526.57 1435.04" /><polygon style="stroke: #a80036; stroke-width: 1;" fill="#a80036" points="531.413,1436.4 523.831,1430.12 526.599,1435.05 521.666,1437.82 531.413,1436.4" /><text font-family="sans-serif" font-size="11" fill="#000000" lengthAdjust="spacingAndGlyphs" textLength="6" x="442" y="1410.4189">2</text><!--link ~E,~E,E,~E,E to ~E,~E,~E,~E,E--><path id="~E,~E,E,~E,E-~E,~E,~E,~E,E" style="stroke: #a80036; stroke-width: 1;" fill="none" d="M 624.546 1445.49 C 675.484 1438.26 750 1418.02 750 1361.5 C 750 909.5 750 909.5 750 909.5 C 750 883.1 731.706 858.369 715.845 841.889" /><polygon style="stroke: #a80036; stroke-width: 1;" fill="#a80036" points="712.298,838.294 715.774,847.509 715.811,841.852 721.467,841.889 712.298,838.294" /><text font-family="sans-serif" font-size="11" fill="#000000" lengthAdjust="spacingAndGlyphs" textLength="6" x="751" y="1140.4189">2</text><!--link ~E,E,~E,~E,~E to ~E,E,E,~E,~E--><path id="~E,E,~E,~E,~E-~E,E,E,~E,~E" style="stroke: #a80036; stroke-width: 1;" fill="none" d="M 523.217 1006.76 C 567.502 1012.34 627.752 1022.5 646 1038 C 664.714 1053.9 666 1064.95 666 1089.5 C 666 1089.5 666 1089.5 666 1361.5 C 666 1413.19 501.301 1436.5 414.757 1445.17" /><polygon style="stroke: #a80036; stroke-width: 1;" fill="#a80036" points="409.68,1445.67 419.029,1448.77 414.656,1445.18 418.245,1440.81 409.68,1445.67" /><text font-family="sans-serif" font-size="11" fill="#000000" lengthAdjust="spacingAndGlyphs" textLength="6" x="667" y="1230.4189">3</text><!--link ~E,E,E,~E,~E to ~E,E,~E,~E,~E--><path id="~E,E,E,~E,~E-~E,E,~E,~E,~E" style="stroke: #a80036; stroke-width: 1;" fill="none" d="M 368.804 1432.86 C 374.391 1415.33 382 1386.82 382 1361.5 C 382 1089.5 382 1089.5 382 1089.5 C 382 1065.66 381.583 1056.18 397 1038 C 402.91 1031.03 410.458 1025.29 418.494 1020.59" /><polygon style="stroke: #a80036; stroke-width: 1;" fill="#a80036" points="423.001,1018.09 413.191,1018.96 418.631,1020.51 417.077,1025.95 423.001,1018.09" /><text font-family="sans-serif" font-size="11" fill="#000000" lengthAdjust="spacingAndGlyphs" textLength="6" x="383" y="1230.4189">4</text><!--link ~E,E,E,~E,~E to ~E,~E,E,~E,~E--><path id="~E,E,E,~E,~E-~E,~E,E,~E,~E" style="stroke: #a80036; stroke-width: 1;" fill="none" d="M 337.557 1432.87 C 329.132 1426.95 319.897 1420.01 312 1413 C 301.293 1403.49 290.445 1391.77 281.873 1381.92" /><polygon style="stroke: #a80036; stroke-width: 1;" fill="#a80036" points="278.585,1378.1 281.428,1387.53 281.848,1381.89 287.489,1382.31 278.585,1378.1" /><text font-family="sans-serif" font-size="11" fill="#000000" lengthAdjust="spacingAndGlyphs" textLength="6" x="313" y="1410.4189">3</text><!--link ~E,~E,E,~E,~E to ~E,E,E,~E,~E--><path id="~E,~E,E,~E,~E-~E,E,E,~E,~E" style="stroke: #a80036; stroke-width: 1;" fill="none" d="M 294.147 1378.09 C 303.181 1383.85 312.887 1390.71 321 1398 C 331.061 1407.04 340.716 1418.61 348.227 1428.48" /><polygon style="stroke: #a80036; stroke-width: 1;" fill="#a80036" points="351.31,1432.6 349.119,1423 348.314,1428.6 342.714,1427.79 351.31,1432.6" /><text font-family="sans-serif" font-size="11" fill="#000000" lengthAdjust="spacingAndGlyphs" textLength="6" x="337" y="1410.4189">4</text><!--link ~E,~E,~E,E,~E to ~E,~E,E,E,~E--><path id="~E,~E,~E,E,~E-~E,~E,E,E,~E" style="stroke: #a80036; stroke-width: 1;" fill="none" d="M 418.93 1190.53 C 396.389 1196.11 370.152 1204.8 349 1218 C 336.185 1226 324.555 1238.28 315.954 1248.84" /><polygon style="stroke: #a80036; stroke-width: 1;" fill="#a80036" points="312.693,1252.94 321.424,1248.38 315.804,1249.03 315.162,1243.41 312.693,1252.94" /><text font-family="sans-serif" font-size="11" fill="#000000" lengthAdjust="spacingAndGlyphs" textLength="6" x="350" y="1230.4189">1</text><!--link ~E,~E,E,E,~E to ~E,~E,~E,E,~E--><path id="~E,~E,E,E,~E-~E,~E,~E,E,~E" style="stroke: #a80036; stroke-width: 1;" fill="none" d="M 347.873 1253.8 C 363.237 1248.01 380.165 1240.9 395 1233 C 412.154 1223.87 430.075 1211.48 443.984 1201.14" /><polygon style="stroke: #a80036; stroke-width: 1;" fill="#a80036" points="448.166,1198.01 438.566,1200.21 444.165,1201.01 443.365,1206.61 448.166,1198.01" /><text font-family="sans-serif" font-size="11" fill="#000000" lengthAdjust="spacingAndGlyphs" textLength="6" x="420" y="1230.4189">1</text><!--link ~E,~E,E,E,~E to ~E,~E,E,~E,~E--><path id="~E,~E,E,E,~E-~E,~E,E,~E,~E" style="stroke: #a80036; stroke-width: 1;" fill="none" d="M 294.229 1288.05 C 288.483 1302.1 280.195 1322.36 273.911 1337.72" /><polygon style="stroke: #a80036; stroke-width: 1;" fill="#a80036" points="271.863,1342.72 278.973,1335.91 273.756,1338.1 271.568,1332.88 271.863,1342.72" /><text font-family="sans-serif" font-size="11" fill="#000000" lengthAdjust="spacingAndGlyphs" textLength="6" x="287" y="1320.4189">2</text><!--link ~E,~E,E,~E,~E to ~E,~E,E,E,~E--><path id="~E,~E,E,~E,~E-~E,~E,E,E,~E" style="stroke: #a80036; stroke-width: 1;" fill="none" d="M 263.215 1342.63 C 262.778 1332.26 263.433 1318.9 268 1308 C 270.372 1302.34 274.013 1296.98 278.024 1292.19" /><polygon style="stroke: #a80036; stroke-width: 1;" fill="#a80036" points="281.461,1288.32 272.496,1292.4 278.142,1292.06 278.48,1297.71 281.461,1288.32" /><text font-family="sans-serif" font-size="11" fill="#000000" lengthAdjust="spacingAndGlyphs" textLength="6" x="269" y="1320.4189">2</text><!--link E,~E,~E,~E,~E to E,~E,~E,~E,~E--><path id="E,~E,~E,~E,~E-E,~E,~E,~E,~E" style="stroke: #a80036; stroke-width: 1;" fill="none" d="M 305.023 632.432 C 316.54 633.127 325 635.816 325 640.5 C 325 644.452 318.977 646.984 310.177 648.096" /><polygon style="stroke: #a80036; stroke-width: 1;" fill="#a80036" points="305.023,648.568 314.351,651.728 310.002,648.111 313.62,643.762 305.023,648.568" /><text font-family="sans-serif" font-size="11" fill="#000000" lengthAdjust="spacingAndGlyphs" textLength="6" x="331" y="645.4189">5</text><!--link ~E,~E,~E,E,~E to ~E,~E,~E,E,E--><path id="~E,~E,~E,E,~E-~E,~E,~E,E,E" style="stroke: #a80036; stroke-width: 1;" fill="none" d="M 485.742 1198.04 C 496.266 1208.3 510.224 1221.63 523 1233 C 529.141 1238.46 535.913 1244.21 542.265 1249.49" /><polygon style="stroke: #a80036; stroke-width: 1;" fill="#a80036" points="546.157,1252.71 541.772,1243.89 542.304,1249.52 536.673,1250.05 546.157,1252.71" /><text font-family="sans-serif" font-size="11" fill="#000000" lengthAdjust="spacingAndGlyphs" textLength="6" x="524" y="1230.4189">3</text><!--link ~E,~E,~E,E,E to ~E,~E,~E,E,~E--><path id="~E,~E,~E,E,E-~E,~E,~E,E,~E" style="stroke: #a80036; stroke-width: 1;" fill="none" d="M 558.233 1252.76 C 551.968 1241.93 542.762 1228.02 532 1218 C 525.051 1211.53 516.758 1205.72 508.508 1200.73" /><polygon style="stroke: #a80036; stroke-width: 1;" fill="#a80036" points="503.937,1198.05 509.671,1206.06 508.248,1200.58 513.723,1199.16 503.937,1198.05" /><text font-family="sans-serif" font-size="11" fill="#000000" lengthAdjust="spacingAndGlyphs" textLength="6" x="546" y="1230.4189">1</text><!--link ~E,~E,~E,E,E to ~E,~E,~E,~E,E--><path id="~E,~E,~E,E,E-~E,~E,~E,~E,E" style="stroke: #a80036; stroke-width: 1;" fill="none" d="M 613.555 1262.38 C 635.294 1257.17 660.414 1248.23 679 1233 C 699.318 1216.35 708 1207.77 708 1181.5 C 708 909.5 708 909.5 708 909.5 C 708 886.747 703.067 861.149 698.858 843.452" /><polygon style="stroke: #a80036; stroke-width: 1;" fill="#a80036" points="697.582,838.226 695.831,847.918 698.768,843.083 703.602,846.021 697.582,838.226" /><text font-family="sans-serif" font-size="11" fill="#000000" lengthAdjust="spacingAndGlyphs" textLength="6" x="709" y="1050.4189">3</text><!--link ~E,~E,~E,~E,E to ~E,~E,~E,E,E--><path id="~E,~E,~E,~E,E-~E,~E,~E,E,E" style="stroke: #a80036; stroke-width: 1;" fill="none" d="M 688.291 838.244 C 668.837 907.413 594.744 1170.85 573.02 1248.09" /><polygon style="stroke: #a80036; stroke-width: 1;" fill="#a80036" points="571.666,1252.91 577.954,1245.33 573.02,1248.1 570.253,1243.16 571.666,1252.91" /><text font-family="sans-serif" font-size="11" fill="#000000" lengthAdjust="spacingAndGlyphs" textLength="6" x="632" y="1050.4189">1</text><!--link E,~E,~E,E,~E to ~E,~E,~E,E,~E--><path id="E,~E,~E,E,~E-~E,~E,~E,E,~E" style="stroke: #a80036; stroke-width: 1;" fill="none" d="M 212.1 748.012 C 214.162 765.673 217 794.519 217 819.5 C 217 819.5 217 819.5 217 1091.5 C 217 1132.85 339.472 1159.32 413.656 1171.55" /><polygon style="stroke: #a80036; stroke-width: 1;" fill="#a80036" points="418.912,1172.41 410.673,1167.01 413.977,1171.6 409.386,1174.91 418.912,1172.41" /><text font-family="sans-serif" font-size="11" fill="#000000" lengthAdjust="spacingAndGlyphs" textLength="6" x="218" y="960.4189">2</text><!--link ~E,~E,~E,~E,E to ~E,E,~E,~E,E--><path id="~E,~E,~E,~E,E-~E,E,~E,~E,E" style="stroke: #a80036; stroke-width: 1;" fill="none" d="M 642.982 831.25 C 622.056 836.867 598.192 845.391 579 858 C 566.735 866.058 555.824 878.339 547.819 888.887" /><polygon style="stroke: #a80036; stroke-width: 1;" fill="#a80036" points="544.788,892.982 553.359,888.13 547.763,888.964 546.929,883.369 544.788,892.982" /><text font-family="sans-serif" font-size="11" fill="#000000" lengthAdjust="spacingAndGlyphs" textLength="6" x="580" y="870.4189">1</text><!--link ~E,E,~E,~E,E to ~E,~E,~E,~E,E--><path id="~E,E,~E,~E,E-~E,~E,~E,~E,E" style="stroke: #a80036; stroke-width: 1;" fill="none" d="M 580.624 894.216 C 595.842 888.444 612.536 881.249 627 873 C 642.54 864.137 658.394 851.892 670.667 841.565" /><polygon style="stroke: #a80036; stroke-width: 1;" fill="#a80036" points="674.687,838.144 665.24,840.929 670.879,841.384 670.424,847.022 674.687,838.144" /><text font-family="sans-serif" font-size="11" fill="#000000" lengthAdjust="spacingAndGlyphs" textLength="6" x="649" y="870.4189">1</text><!--link ~E,E,~E,~E,E to ~E,E,~E,~E,~E--><path id="~E,E,~E,~E,E-~E,E,~E,~E,~E" style="stroke: #a80036; stroke-width: 1;" fill="none" d="M 526.123 928.329 C 520.969 938.69 513.767 952.04 506 963 C 502.143 968.443 497.568 973.962 493.072 979.004" /><polygon style="stroke: #a80036; stroke-width: 1;" fill="#a80036" points="489.663,982.757 498.676,978.786 493.025,979.056 492.754,973.406 489.663,982.757" /><text font-family="sans-serif" font-size="11" fill="#000000" lengthAdjust="spacingAndGlyphs" textLength="6" x="517" y="960.4189">1</text><!--link ~E,E,~E,~E,~E to ~E,E,~E,~E,E--><path id="~E,E,~E,~E,~E-~E,E,~E,~E,E" style="stroke: #a80036; stroke-width: 1;" fill="none" d="M 478.967 982.919 C 483.164 972.407 489.383 958.803 497 948 C 500.978 942.359 505.882 936.829 510.804 931.849" /><polygon style="stroke: #a80036; stroke-width: 1;" fill="#a80036" points="514.557,928.155 505.337,931.618 510.994,931.663 510.949,937.319 514.557,928.155" /><text font-family="sans-serif" font-size="11" fill="#000000" lengthAdjust="spacingAndGlyphs" textLength="6" x="498" y="960.4189">1</text><!--link ~E,E,~E,~E,~E to E,E,~E,~E,~E--><path id="~E,E,~E,~E,~E-E,E,~E,~E,~E" style="stroke: #a80036; stroke-width: 1;" fill="none" d="M 422.932 1012.66 C 402.564 1018.46 379.322 1026.73 360 1038 C 345.977 1046.18 332.511 1058.38 322.299 1068.85" /><polygon style="stroke: #a80036; stroke-width: 1;" fill="#a80036" points="318.689,1072.61 327.803,1068.88 322.147,1069 322.025,1063.35 318.689,1072.61" /><text font-family="sans-serif" font-size="11" fill="#000000" lengthAdjust="spacingAndGlyphs" textLength="6" x="361" y="1050.4189">1</text><!--link E,E,~E,~E,~E to ~E,E,~E,~E,~E--><path id="E,E,~E,~E,~E-~E,E,~E,~E,~E" style="stroke: #a80036; stroke-width: 1;" fill="none" d="M 335.932 1072.87 C 364.566 1057.96 406.562 1036.09 436.513 1020.5" /><polygon style="stroke: #a80036; stroke-width: 1;" fill="#a80036" points="441.212,1018.05 431.382,1018.66 436.777,1020.36 435.077,1025.76 441.212,1018.05" /><text font-family="sans-serif" font-size="11" fill="#000000" lengthAdjust="spacingAndGlyphs" textLength="6" x="400" y="1050.4189">1</text><!--link E,E,~E,~E,~E to E,~E,~E,~E,~E--><path id="E,E,~E,~E,~E-E,~E,~E,~E,~E" style="stroke: #a80036; stroke-width: 1;" fill="none" d="M 309.387 1072.91 C 317.003 1047.94 330 999.085 330 956.5 C 330 729.5 330 729.5 330 729.5 C 330 700.895 306.761 676.869 286.155 661.187" /><polygon style="stroke: #a80036; stroke-width: 1;" fill="#a80036" points="282.077,658.163 286.926,666.735 286.094,661.14 291.689,660.308 282.077,658.163" /><text font-family="sans-serif" font-size="11" fill="#000000" lengthAdjust="spacingAndGlyphs" textLength="6" x="331" y="870.4189">1</text><!--link E,~E,~E,~E,~E to E,E,~E,~E,~E--><path id="E,~E,~E,~E,~E-E,E,~E,~E,~E" style="stroke: #a80036; stroke-width: 1;" fill="none" d="M 265.261 658.008 C 274.948 675.197 288 703.23 288 729.5 C 288 729.5 288 729.5 288 1001.5 C 288 1024.3 293.262 1049.89 297.751 1067.57" /><polygon style="stroke: #a80036; stroke-width: 1;" fill="#a80036" points="299.113,1072.79 300.712,1063.08 297.851,1067.96 292.971,1065.09 299.113,1072.79" /><text font-family="sans-serif" font-size="11" fill="#000000" lengthAdjust="spacingAndGlyphs" textLength="6" x="289" y="870.4189">1</text><!--link E,~E,~E,~E,~E to E,~E,~E,~E,E--><path id="E,~E,~E,~E,~E-E,~E,~E,~E,E" style="stroke: #a80036; stroke-width: 1;" fill="none" d="M 305.202 657.334 C 355.356 673.154 432.079 697.353 482.638 713.3" /><polygon style="stroke: #a80036; stroke-width: 1;" fill="#a80036" points="487.448,714.817 480.068,708.295 482.68,713.313 477.662,715.924 487.448,714.817" /><text font-family="sans-serif" font-size="11" fill="#000000" lengthAdjust="spacingAndGlyphs" textLength="6" x="413" y="690.4189">1</text><!--link E,~E,~E,~E,E to ~E,~E,~E,~E,E--><path id="E,~E,~E,~E,E-~E,~E,~E,~E,E" style="stroke: #a80036; stroke-width: 1;" fill="none" d="M 563.907 748.052 C 590.804 762.939 630.313 784.805 658.53 800.422" /><polygon style="stroke: #a80036; stroke-width: 1;" fill="#a80036" points="662.958,802.873 657.02,795.016 658.583,800.452 653.147,802.015 662.958,802.873" /><text font-family="sans-serif" font-size="11" fill="#000000" lengthAdjust="spacingAndGlyphs" textLength="6" x="624" y="780.4189">1</text><!--
@startuml
(*) - -> [1] "null,null,null,null,null"
"null,null,null,null,null" - -> [1] "~E,null,null,null,null"
"~E,null,null,null,null" - -> [1] "~E,~E,null,null,null"
"~E,~E,null,null,null" - -> [1] "~E,~E,~E,null,null"
"~E,~E,~E,null,null" - -> [1] "~E,~E,~E,~E,null"
"~E,~E,~E,~E,null" - -> [1] "~E,~E,~E,~E,~E"
"~E,~E,~E,~E,~E" - -> [226] "~E,~E,~E,~E,~E"
"~E,~E,~E,~E,~E" - -> [46] "E,~E,~E,~E,~E"
"E,~E,~E,~E,~E" - -> [7] "E,~E,~E,E,~E"
"E,~E,~E,E,~E" - -> [5] "E,~E,~E,~E,~E"
"E,~E,~E,~E,~E" - -> [44] "~E,~E,~E,~E,~E"
"~E,~E,~E,~E,~E" - -> [43] "~E,~E,E,~E,~E"
"~E,~E,E,~E,~E" - -> [39] "~E,~E,~E,~E,~E"
"~E,~E,~E,~E,~E" - -> [38] "~E,~E,~E,E,~E"
"~E,~E,~E,E,~E" - -> [3] "~E,~E,~E,E,~E"
"~E,~E,~E,E,~E" - -> [37] "~E,~E,~E,~E,~E"
"~E,~E,~E,~E,~E" - -> [41] "~E,E,~E,~E,~E"
"~E,E,~E,~E,~E" - -> [5] "~E,E,~E,~E,~E"
"~E,E,~E,~E,~E" - -> [43] "~E,~E,~E,~E,~E"
"~E,~E,~E,~E,~E" - -> [43] "~E,~E,~E,~E,E"
"~E,~E,~E,E,~E" - -> [3] "~E,E,~E,E,~E"
"~E,E,~E,E,~E" - -> [3] "~E,E,~E,~E,~E"
"~E,~E,~E,~E,E" - -> [5] "~E,~E,~E,~E,E"
"~E,~E,E,~E,~E" - -> [6] "~E,~E,E,~E,~E"
"~E,~E,E,~E,~E" - -> [3] "E,~E,E,~E,~E"
"E,~E,E,~E,~E" - -> [4] "E,~E,~E,~E,~E"
"~E,~E,E,~E,~E" - -> [2] "~E,~E,E,~E,E"
"~E,~E,E,~E,E" - -> [2] "~E,~E,~E,~E,E"
"~E,E,~E,~E,~E" - -> [3] "~E,E,E,~E,~E"
"~E,E,E,~E,~E" - -> [3] "~E,~E,E,~E,~E"
"~E,~E,~E,E,~E" - -> [1] "~E,~E,E,E,~E"
"~E,~E,E,E,~E" - -> [2] "~E,~E,E,~E,~E"
"~E,E,~E,~E,~E" - -> [2] "~E,E,~E,E,~E"
"~E,E,~E,E,~E" - -> [2] "~E,~E,~E,E,~E"
"E,~E,~E,~E,~E" - -> [5] "E,~E,~E,~E,~E"
"E,~E,~E,~E,~E" - -> [3] "E,~E,E,~E,~E"
"E,~E,E,~E,~E" - -> [2] "~E,~E,E,~E,~E"
"~E,~E,E,~E,~E" - -> [2] "~E,~E,E,E,~E"
"~E,~E,E,E,~E" - -> [1] "~E,~E,~E,E,~E"
"~E,~E,~E,E,~E" - -> [3] "~E,~E,~E,E,E"
"~E,~E,~E,E,E" - -> [3] "~E,~E,~E,~E,E"
"E,~E,~E,E,~E" - -> [2] "~E,~E,~E,E,~E"
"~E,~E,E,~E,~E" - -> [4] "~E,E,E,~E,~E"
"~E,E,E,~E,~E" - -> [4] "~E,E,~E,~E,~E"
"~E,~E,~E,~E,E" - -> [1] "~E,E,~E,~E,E"
"~E,E,~E,~E,E" - -> [1] "~E,E,~E,~E,~E"
"~E,~E,~E,~E,E" - -> [1] "~E,~E,~E,E,E"
"~E,~E,~E,E,E" - -> [1] "~E,~E,~E,E,~E"
"~E,E,~E,~E,~E" - -> [1] "E,E,~E,~E,~E"
"E,E,~E,~E,~E" - -> [1] "E,~E,~E,~E,~E"
"E,~E,~E,~E,~E" - -> [1] "E,~E,~E,~E,E"
"E,~E,~E,~E,E" - -> [1] "~E,~E,~E,~E,E"
"~E,E,~E,~E,~E" - -> [1] "~E,E,~E,~E,E"
"~E,E,~E,~E,E" - -> [1] "~E,~E,~E,~E,E"
"E,~E,~E,~E,~E" - -> [1] "E,E,~E,~E,~E"
"E,E,~E,~E,~E" - -> [1] "~E,E,~E,~E,~E"
"~E,~E,~E,~E,E" - -> [48] "~E,~E,~E,~E,~E" #red
@enduml

PlantUML version 1.2019.00(Sun Jan 13 10:46:42 EST 2019)
(EPL source distribution)
Java Runtime: Java(TM) SE Runtime Environment
JVM: Java HotSpot(TM) 64-Bit Server VM
Java Version: 1.8.0_201-b09
Operating System: Windows 10
OS Version: 10.0
Default Encoding: Cp1252
Language: en
Country: US
--></g></svg>